<!DOCTYPE svg PUBLIC "-//W3C//DTD SVG 20010904//EN" "http://www.w3.org/TR/2001/REC-SVG-20010904/DTD/svg10.dtd">
<svg version="1.0" xmlns="http://www.w3.org/2000/svg" width="1468px" height="450px" viewBox="0 0 14680 4500" preserveAspectRatio="xMidYMid meet"><g fill="#010101" stroke="none">
 <path d="M5225 4481 c-129 -15 -289 -67 -457 -152 -347 -174 -720 -512 -1051 -952 -57 -76 -86 -107 -97 -103 -8 3 -55 20 -105 38 -87 31 -95 32 -250 33 -140 0 -169 -3 -235 -23 -138 -44 -225 -96 -331 -202 -82 -81 -102 -109 -142 -190 -64 -130 -87 -225 -87 -365 0 -140 23 -235 87 -365 40 -81 60 -109 142 -190 74 -74 114 -105 176 -137 130 -67 201 -85 355 -90 166 -7 255 12 400 83 81 40 109 61 191 143 82 82 103 110 142 191 64 130 87 225 87 365 0 139 -23 235 -86 364 -37 76 -63 110 -134 184 l-88 91 29 43 c109 158 313 396 467 545 303 292 590 466 909 549 156 41 357 50 514 25 210 -35 433 -127 638 -266 267 -179 545 -462 794 -808 l57 -79 -94 -94 c-78 -80 -101 -110 -140 -189 -63 -130 -86 -225 -86 -365 0 -140 23 -235 87 -365 40 -81 60 -109 142 -190 106 -106 193 -158 331 -202 66 -20 95 -23 235 -23 152 0 164 2 245 30 l85 30 74 -125 c384 -653 746 -1152 1032 -1424 125 -118 215 -184 329 -240 l85 -41 155 0 155 0 65 35 c92 49 229 189 315 320 149 226 285 530 588 1305 61 156 52 145 106 128 26 -9 104 -17 181 -20 166 -7 255 12 400 83 81 40 109 61 191 143 82 82 103 110 142 191 64 130 87 225 87 365 0 140 -23 235 -87 365 -40 81 -60 109 -142 190 -106 106 -193 158 -331 202 -65 20 -95 23 -230 23 -135 0 -165 -3 -230 -23 -138 -44 -225 -96 -331 -202 -82 -81 -102 -109 -142 -190 -64 -130 -87 -225 -87 -365 0 -140 23 -235 86 -365 39 -79 62 -109 138 -186 50 -50 114 -104 142 -120 l50 -29 -61 -155 c-34 -85 -94 -238 -134 -340 -80 -202 -88 -222 -187 -450 -190 -439 -351 -672 -524 -760 -200 -102 -426 -8 -725 301 -247 256 -526 647 -881 1238 l-123 203 47 37 c195 155 302 376 302 626 0 140 -23 235 -87 365 -40 81 -60 109 -142 190 -106 106 -193 158 -331 202 -66 20 -95 23 -235 23 -153 -1 -164 -2 -245 -31 -47 -17 -92 -34 -100 -37 -11 -5 -33 19 -80 85 -89 125 -192 252 -317 389 -336 371 -685 606 -1053 709 -64 18 -109 22 -300 25 -124 2 -256 0 -295 -4z m-1825 -1306 c32 -8 77 -23 99 -33 l41 -17 -30 -45 c-17 -25 -55 -86 -85 -136 l-55 -91 -94 5 c-85 4 -99 2 -149 -21 -69 -31 -131 -93 -163 -160 -18 -40 -24 -69 -24 -127 0 -91 27 -157 90 -220 63 -63 129 -90 220 -90 91 0 157 27 220 90 63 63 90 129 90 220 0 81 -17 132 -66 195 l-27 36 53 87 c114 187 119 193 139 183 25 -14 81 -78 119 -137 46 -72 79 -158 98 -258 16 -81 16 -91 0 -172 -58 -297 -233 -472 -530 -530 -81 -16 -91 -16 -172 0 -297 58 -472 233 -530 530 -16 81 -16 91 0 172 28 143 97 284 178 361 48 45 148 107 215 132 139 52 237 59 363 26z m7768 9 c288 -59 461 -235 518 -528 16 -81 16 -91 0 -172 -58 -297 -233 -472 -530 -530 -81 -16 -91 -16 -173 0 -49 9 -92 21 -97 26 -5 5 15 63 44 134 l53 126 76 0 c92 0 158 27 221 90 63 63 90 129 90 220 0 91 -27 157 -90 220 -63 63 -129 90 -220 90 -91 0 -157 -27 -220 -90 -63 -63 -90 -129 -90 -220 0 -88 25 -152 84 -215 l37 -39 -30 -76 c-30 -77 -74 -182 -78 -188 -3 -6 -96 59 -131 92 -80 75 -150 217 -178 360 -16 81 -16 91 0 172 28 143 97 284 178 361 81 76 207 139 338 167 86 19 107 19 198 0z m-3395 -20 c79 -20 188 -73 252 -121 130 -100 228 -308 228 -483 0 -171 -98 -383 -221 -477 -24 -18 -47 -33 -50 -33 -4 1 -39 58 -78 128 l-72 127 29 36 c50 64 69 117 69 199 0 91 -27 157 -90 220 -66 66 -129 91 -228 89 l-82 -2 -48 79 c-27 43 -65 105 -85 136 l-37 58 36 15 c35 14 117 37 174 49 38 7 135 -2 203 -20z m-404 -286 l53 -88 -36 -43 c-56 -69 -76 -121 -76 -207 0 -58 6 -86 24 -127 32 -67 94 -129 163 -160 49 -23 65 -25 145 -21 l89 4 38 -65 c21 -36 52 -92 70 -124 l33 -57 -35 -15 c-19 -8 -73 -22 -121 -31 -81 -16 -91 -16 -172 0 -297 58 -472 233 -530 530 -16 81 -16 91 0 172 30 153 103 295 194 375 l45 39 32 -47 c17 -27 55 -87 84 -135z"/>
 <path d="M4920 3330 c-41 -11 -118 -41 -170 -66 -81 -40 -109 -61 -191 -143 -82 -82 -103 -110 -143 -191 -70 -144 -90 -235 -83 -395 8 -225 70 -369 227 -526 81 -82 109 -102 190 -142 130 -64 225 -87 365 -87 127 0 230 22 333 70 63 29 152 88 152 100 0 3 -13 21 -28 39 l-28 33 -58 -37 c-32 -21 -95 -51 -140 -68 -69 -26 -99 -31 -201 -34 -146 -6 -222 9 -345 69 -68 33 -101 57 -165 122 -89 89 -138 171 -176 296 -30 97 -33 279 -5 380 67 245 260 432 502 485 160 36 368 7 499 -69 l45 -27 0 -144 0 -145 -237 -2 -238 -3 0 -45 0 -45 285 0 285 0 3 216 2 215 -44 33 c-64 45 -158 87 -250 111 -106 27 -280 27 -386 0z"/>
 <path d="M0 3035 l0 -286 37 3 38 3 0 280 0 280 -37 3 -38 3 0 -286z"/>
 <path d="M1225 3308 c-3 -7 -4 -135 -3 -283 l3 -270 378 0 379 0 139 255 c76 140 139 258 139 262 0 3 -16 16 -35 28 -28 17 -39 19 -49 10 -8 -6 -70 -112 -137 -236 l-123 -224 -298 0 -298 0 -2 233 -3 232 -43 3 c-28 2 -44 -1 -47 -10z"/>
 <path d="M6297 3314 c-4 -4 -7 -321 -7 -705 l0 -699 -217 -2 -218 -3 0 -45 0 -45 485 0 485 0 0 45 0 45 -217 3 -218 2 -2 703 -3 702 -40 3 c-23 2 -44 0 -48 -4z"/>
 <path d="M8757 3314 c-11 -12 -9 -992 3 -999 5 -3 261 200 567 452 306 252 564 463 572 469 12 9 10 16 -14 48 -15 20 -31 36 -35 36 -5 0 -230 -182 -502 -405 l-493 -405 -5 402 -5 403 -40 3 c-23 2 -44 0 -48 -4z"/>
 <path d="M12205 3308 c-3 -7 -4 -346 -3 -753 l3 -740 247 -3 c294 -3 348 5 488 74 167 83 290 231 357 429 25 75 27 92 27 250 0 158 -2 175 -27 250 -67 198 -190 346 -357 429 -137 67 -190 76 -483 76 -189 0 -249 -3 -252 -12z m533 -104 c294 -60 482 -309 482 -639 0 -330 -188 -579 -482 -639 -53 -11 -133 -16 -258 -16 l-180 0 0 655 0 655 180 0 c125 0 205 -5 258 -16z"/>
 <path d="M13675 3307 c-3 -7 -4 -134 -3 -282 l3 -270 325 0 325 0 0 45 0 45 -277 3 -278 2 0 185 0 185 428 2 427 3 0 45 0 45 -473 3 c-376 2 -474 0 -477 -11z"/>
 <path d="M9415 2374 c-297 -245 -553 -456 -569 -469 l-29 -23 28 -36 c15 -20 31 -36 35 -36 5 0 230 182 502 405 l493 405 5 -402 5 -403 45 0 45 0 0 499 c0 324 -4 500 -10 502 -5 2 -253 -198 -550 -442z"/>
 <path d="M0 2095 l0 -286 373 3 372 3 47 27 c100 60 154 158 146 271 -5 75 -29 129 -83 182 -80 81 -74 80 -487 83 l-368 3 0 -286z m752 157 c57 -35 83 -85 83 -158 0 -77 -33 -131 -97 -163 -42 -20 -59 -21 -351 -21 l-307 0 0 186 0 185 318 -3 c311 -3 318 -3 354 -26z"/>
 <path d="M1225 2368 c-3 -7 -4 -135 -3 -283 l3 -270 380 0 380 0 47 27 c100 60 154 158 146 271 -5 75 -29 129 -83 182 -80 81 -73 80 -493 83 -298 2 -373 0 -377 -10z m767 -116 c57 -35 83 -85 83 -158 0 -77 -33 -131 -97 -163 -42 -20 -59 -21 -351 -21 l-307 0 0 186 0 185 318 -3 c311 -3 318 -3 354 -26z"/>
 <path d="M5024 2366 c-3 -8 -4 -29 -2 -48 l3 -33 285 0 285 0 0 45 0 45 -283 3 c-237 2 -283 0 -288 -12z"/>
 <path d="M13675 2367 c-3 -7 -4 -134 -3 -282 l3 -270 475 0 475 0 0 45 0 45 -427 3 -428 2 0 185 0 185 278 2 277 3 0 45 0 45 -323 3 c-255 2 -324 0 -327 -11z"/>
 </g>

</svg>